inDegrees=yes
name=IK-live
DataType=double
version=3
OpenSimVersion=4.1
endheader
time	pelvis_tilt	pelvis_list	pelvis_rotation	pelvis_tx	pelvis_ty	pelvis_tz	hip_flexion_r	hip_adduction_r	hip_rotation_r	knee_angle_r	ankle_angle_r	subtalar_angle_r	mtp_angle_r	hip_flexion_l	hip_adduction_l	hip_rotation_l	knee_angle_l	ankle_angle_l	subtalar_angle_l	mtp_angle_l	lumbar_extension	lumbar_bending	lumbar_rotation	neck_flex	neck_latbend	neck_rot	arm_flex_r	arm_add_r	arm_rot_r	elbow_flex_r	pro_sup_r	wrist_flex_r	wrist_dev_r	arm_flex_l	arm_add_l	arm_rot_l	elbow_flex_l	pro_sup_l	wrist_flex_l	wrist_dev_l
35.6751171	4.282363033372238	7.285674955094204	-271.9668968396044	0.2341366603171506	0.04326292228651554	-1.326684523481465	-22.57117169827992	-1.591976316804377	-3.241458145969817	5.899560354604904	2.451982624139334	1.987972377786656	0	-24.74788768789517	-3.395140484746916	-11.58000132048591	9.793848132074926	-0.4439473045988533	4.250290820099795	0	-21.37711699760957	1.659277491615732	3.206407148933037	0	0	0	0.7774949261280641	-15.17651438803838	33.31491099308255	6.96015324692169	24.86505843951081	0	0.008250073746308626	5.868715426379026	-13.22967310062941	43.90412183798671	6.773490064609168	33.47563522185837	0	0.008250073746308626
35.8499965	14.92600423373058	6.998848198819837	69.1540593352217	0.2341366603171506	0.04326292228651554	-1.326684523481465	-22.57117169827992	-1.591976316804377	-3.241458145969817	5.899560354604904	2.451982624139334	1.987972377786656	0	-24.74788768789517	-3.395140484746916	-11.58000132048591	9.793848132074926	-0.4439473045988533	4.250290820099795	0	-21.37711699760957	1.659277491615732	3.206407148933037	0	0	0	0.7851711251881571	-15.17648079661644	33.30494482235171	7.094749609722077	24.89067323892583	0	0.01992775897928539	5.87570310554292	-13.23001009512189	43.88927322283924	6.911744302872057	33.4882334537323	0	0.01992775897928539
36.0248579	18.62304958837032	6.322863943805119	56.67834925518817	0.2341366603171506	0.04326292228651554	-1.326684523481465	-22.57117169827992	-1.591976316804377	-3.241458145969817	5.899560354604904	2.451982624139334	1.987972377786656	0	-24.74788768789517	-3.395140484746916	-11.58000132048591	9.793848132074926	-0.4439473045988533	4.250290820099795	0	-21.37711699760957	1.659277491615732	3.206407148933037	0	0	0	0.7852965884981705	-15.17648024750596	33.30478189280162	7.096899822715344	24.89109197328116	0	0.02011870031765171	5.875817315455917	-13.23001560388585	43.88903047670092	6.913949618468053	33.48843948864872	0	0.02011870031765171
36.1997776	23.45276042091452	5.910895943961664	38.23293769143066	0.2341366603171506	0.04326292228651554	-1.326684523481465	-22.57117169827992	-1.591976316804377	-3.241458145969817	5.899560354604904	2.451982624139334	1.987972377786656	0	-24.74788768789517	-3.395140484746916	-11.58000132048591	9.793848132074926	-0.4439473045988533	4.250290820099795	0	-21.37711699760957	1.659277491615732	3.206407148933037	0	0	0	0.7839106521083081	-15.17648631255292	33.30658125772211	7.072750138434046	24.88646967878452	0	0.01801193687801903	5.874555693261609	-13.22995475837014	43.89171124270423	6.889151384620517	33.48616556410987	0	0.01801193687801903
36.3746433	29.0835527269964	1.919248492933576	17.84255192460102	0.2341366603171506	0.04326292228651554	-1.326684523481465	-22.57117169827992	-1.591976316804377	-3.241458145969817	5.899560354604904	2.451982624139334	1.987972377786656	0	-24.74788768789517	-3.395140484746916	-11.58000132048591	9.793848132074926	-0.4439473045988533	4.250290820099795	0	-21.37711699760957	1.659277491615732	3.206407148933037	0	0	0	0.7840893492674227	-15.17648553203503	33.30635028623554	7.075703217052281	24.88705802872939	0	0.01827937492722835	5.874718404947304	-13.22996258863171	43.89136754082714	6.892177262814996	33.48645567555091	0	0.01827937492722835
36.5495788	26.70114814001718	-3.157476784827897	5.686055577999862	0.2341366603171506	0.04326292228651554	-1.326684523481465	-22.57117169827992	-1.591976316804377	-3.241458145969817	5.899560354604904	2.451982624139334	1.987972377786656	0	-24.74788768789517	-3.395140484746916	-11.58000132048591	9.793848132074926	-0.4439473045988533	4.250290820099795	0	-21.37711699760957	1.659277491615732	3.206407148933037	0	0	0	0.7840795365913875	-15.17648557621423	33.30636386853123	7.075448310786394	24.8870193610672	0	0.0182611897833618	5.874709506802122	-13.22996214540464	43.89138809199248	6.891913192972861	33.48643709694174	0	0.0182611897833618
36.724425	24.82999350101968	-10.58513825263845	-11.52575241551767	0.2341366603171506	0.04326292228651554	-1.326684523481465	-22.57117169827992	-1.591976316804377	-3.241458145969817	5.899560354604904	2.451982624139334	1.987972377786656	0	-24.74788768789517	-3.395140484746916	-11.58000132048591	9.793848132074926	-0.4439473045988533	4.250290820099795	0	-21.37711699760957	1.659277491615732	3.206407148933037	0	0	0	0.7822961944200939	-15.17649337966294	33.30867871667751	7.044273760737688	24.88107528957035	0	0.01555260604568923	5.873086114167259	-13.22988385997234	43.89483669063622	6.859892432656635	33.48351287645477	0	0.01555260604568923
36.8993343	20.04960877397559	-12.86452464732106	-16.48826811546418	0.2341366603171506	0.04326292228651554	-1.326684523481465	-22.57117169827992	-1.591976316804377	-3.241458145969817	5.899560354604904	2.451982624139334	1.987972377786656	0	-24.74788768789517	-3.395140484746916	-11.58000132048591	9.793848132074926	-0.4439473045988533	4.250290820099795	0	-21.37711699760957	1.659277491615732	3.206407148933037	0	0	0	0.7820863616325877	-15.17649429801694	33.30895127880049	7.040585741931634	24.88037265985719	0	0.01523166749360493	5.872895100929628	-13.22987464689739	43.89524287226049	6.856105612433269	33.48316753854923	0	0.01523166749360493
37.074454	21.15355397510104	-22.12546345475882	-27.80138304073904	0.2341366603171506	0.04326292228651554	-1.326684523481465	-22.57117169827992	-1.591976316804377	-3.241458145969817	5.899560354604904	2.451982624139334	1.987972377786656	0	-24.74788768789517	-3.395140484746916	-11.58000132048591	9.793848132074926	-0.4439473045988533	4.250290820099795	0	-21.37711699760957	1.659277491615732	3.206407148933037	0	0	0	0.7832837836253058	-15.17648905423726	33.30739378754883	7.061806197703205	24.88439558203497	0	0.01706998394780391	5.873985037931166	-13.22992725337443	43.89292109194063	6.877899255280057	33.48514389664317	0	0.01706998394780391
37.2251865	20.74424743023581	-21.39990377938998	-33.26126598693569	0.2341366603171506	0.04326292228651554	-1.326684523481465	-22.57117169827992	-1.591976316804377	-3.241458145969817	5.899560354604904	2.451982624139334	1.987972377786656	0	-24.74788768789517	-3.395140484746916	-11.58000132048591	9.793848132074926	-0.4439473045988533	4.250290820099795	0	-21.37711699760957	1.659277491615732	3.206407148933037	0	0	0	0.7831138896332187	-15.17648980162771	33.30761714219743	7.05855879794742	24.88380631346262	0	0.01679859318574864	5.873830483149331	-13.22991975538851	43.89325499122928	6.874559394226635	33.48485584993297	0	0.01679859318574864
37.4000212	19.25618768911265	-21.46245800385648	-34.90304470216044	0.2341366603171506	0.04326292228651554	-1.326684523481465	-22.57117169827992	-1.591976316804377	-3.241458145969817	5.899560354604904	2.451982624139334	1.987972377786656	0	-24.74788768789517	-3.395140484746916	-11.58000132048591	9.793848132074926	-0.4439473045988533	4.250290820099795	0	-21.37711699760957	1.659277491615732	3.206407148933037	0	0	0	0.7830234217050364	-15.17649019686203	33.30773412740738	7.057049240805074	24.88350826760677	0	0.01666315223987541	5.873748111529911	-13.22991579034296	43.8934290895936	6.873011650449039	33.48470890658517	0	0.01666315223987541
37.5749152	26.12994399904002	-13.64114812413625	-14.84989423595493	0.2341366603171506	0.04326292228651554	-1.326684523481465	-22.57117169827992	-1.591976316804377	-3.241458145969817	5.899560354604904	2.451982624139334	1.987972377786656	0	-24.74788768789517	-3.395140484746916	-11.58000132048591	9.793848132074926	-0.4439473045988533	4.250290820099795	0	-21.37711699760957	1.659277491615732	3.206407148933037	0	0	0	0.7827153243787413	-15.17649154541344	33.30813445514713	7.051564489225374	24.88247522303812	0	0.01619119784588033	5.873467652254757	-13.22990226145596	43.89402575197522	6.867376219950237	33.48420138815787	0	0.01619119784588033
